<svg width="128" height="128" viewBox="0 0 128 128" fill="none" xmlns="http://www.w3.org/2000/svg">
<rect width="128" height="128" fill="white"/>
<path d="M35.7157 64.0002L78.1421 21.5738L92.2842 35.7159L64 64.0002L92.2842 92.2845L78.1421 106.427L35.7157 64.0002Z" fill="#134074"/>
<path d="M92.2843 64.0002L49.8579 21.5738L35.7158 35.7159L64 64.0002L35.7158 92.2845L49.8579 106.427L92.2843 64.0002Z" fill="#134074"/>
<rect x="78.1421" y="78.1423" width="20" height="20" transform="rotate(45 78.1421 78.1423)" fill="url(#paint0_linear_1_140)"/>
<rect x="49.8579" y="49.858" width="20" height="20" transform="rotate(-135 49.8579 49.858)" fill="url(#paint1_linear_1_140)"/>
<rect x="78.1421" y="49.8581" width="20" height="20" transform="rotate(45 78.1421 49.8581)" fill="url(#paint2_linear_1_140)"/>
<rect x="49.8579" y="78.1423" width="20" height="20" transform="rotate(-135 49.8579 78.1423)" fill="url(#paint3_linear_1_140)"/>
<defs>
<linearGradient id="paint0_linear_1_140" x1="78.1421" y1="78.3433" x2="88.0416" y2="88.2428" gradientUnits="userSpaceOnUse">
<stop offset="1" stop-color="#134074"/>
</linearGradient>
<linearGradient id="paint1_linear_1_140" x1="49.8579" y1="50.059" x2="59.7574" y2="59.9585" gradientUnits="userSpaceOnUse">
<stop offset="1" stop-color="#134074"/>
</linearGradient>
<linearGradient id="paint2_linear_1_140" x1="78.1421" y1="50.059" x2="88.0416" y2="59.9585" gradientUnits="userSpaceOnUse">
<stop offset="1" stop-color="#134074"/>
</linearGradient>
<linearGradient id="paint3_linear_1_140" x1="49.8579" y1="78.3433" x2="59.7574" y2="88.2428" gradientUnits="userSpaceOnUse">
<stop offset="1" stop-color="#134074"/>
</linearGradient>
</defs>
</svg>
